<svg width="826" height="174" viewBox="0 0 826 174" fill="none" xmlns="http://www.w3.org/2000/svg">
<path d="M50.5 116C49.02 116 47.9 115.64 47.14 114.92C46.42 114.16 46.06 113.04 46.06 111.56V40.46C46.06 38.94 46.42 37.82 47.14 37.1C47.9 36.38 49.02 36.02 50.5 36.02C51.98 36.02 53.08 36.38 53.8 37.1C54.52 37.82 54.88 38.94 54.88 40.46V111.56C54.88 113.04 54.52 114.16 53.8 114.92C53.08 115.64 51.98 116 50.5 116ZM67.2297 115.58C64.4297 114.46 63.5897 112.52 64.7097 109.76L93.6897 39.44C94.6897 37.12 96.3297 35.96 98.6097 35.96H98.9097C101.19 36.08 102.75 37.24 103.59 39.44L132.87 109.76C133.99 112.52 133.19 114.46 130.47 115.58C127.71 116.66 125.79 115.86 124.71 113.18L117.69 96.38H79.7097L72.9297 113.18C71.8097 115.9 69.9097 116.7 67.2297 115.58ZM83.1897 87.56H114.09L98.4297 49.94L83.1897 87.56Z" fill="white"/>
<path d="M486.22 115.94C479.3 115.94 473.98 114.5 470.26 111.62C466.58 108.7 464.38 104.18 463.66 98.06C463.54 96.58 463.86 95.46 464.62 94.7C465.42 93.9 466.54 93.5 467.98 93.5C469.42 93.5 470.48 93.86 471.16 94.58C471.88 95.3 472.34 96.38 472.54 97.82C473.02 101.34 474.28 103.78 476.32 105.14C478.4 106.46 481.7 107.12 486.22 107.12H503.5C508.86 107.12 512.52 106.14 514.48 104.18C516.48 102.18 517.48 98.56 517.48 93.32C517.48 88 516.46 84.34 514.42 82.34C512.42 80.3 508.78 79.28 503.5 79.28H488.14C480.74 79.28 475.26 77.5 471.7 73.94C468.18 70.38 466.42 64.92 466.42 57.56C466.42 50.2 468.16 44.76 471.64 41.24C475.16 37.72 480.62 35.96 488.02 35.96H503.14C509.62 35.96 514.6 37.34 518.08 40.1C521.6 42.82 523.72 47.04 524.44 52.76C524.6 54.24 524.28 55.38 523.48 56.18C522.72 56.94 521.6 57.32 520.12 57.32C518.72 57.32 517.66 56.96 516.94 56.24C516.22 55.48 515.78 54.4 515.62 53C515.14 49.92 513.94 47.78 512.02 46.58C510.14 45.38 507.18 44.78 503.14 44.78H488.02C483.06 44.78 479.68 45.7 477.88 47.54C476.12 49.34 475.24 52.68 475.24 57.56C475.24 62.44 476.14 65.82 477.94 67.7C479.78 69.54 483.18 70.46 488.14 70.46H503.5C511.26 70.46 517 72.32 520.72 76.04C524.44 79.76 526.3 85.52 526.3 93.32C526.3 101.08 524.44 106.8 520.72 110.48C517 114.12 511.26 115.94 503.5 115.94H486.22ZM533.87 115.58C531.07 114.46 530.23 112.52 531.35 109.76L560.33 39.44C561.33 37.12 562.97 35.96 565.25 35.96H565.55C567.83 36.08 569.39 37.24 570.23 39.44L599.51 109.76C600.63 112.52 599.83 114.46 597.11 115.58C594.35 116.66 592.43 115.86 591.35 113.18L584.33 96.38H546.35L539.57 113.18C538.45 115.9 536.55 116.7 533.87 115.58ZM549.83 87.56H580.73L565.07 49.94L549.83 87.56ZM613.6 116C610.64 116 609.16 114.52 609.16 111.56V40.4C609.16 37.44 610.64 35.96 613.6 35.96C616.52 35.96 617.98 37.44 617.98 40.4V107.18H652.3C655.26 107.18 656.74 108.64 656.74 111.56C656.74 114.52 655.26 116 652.3 116H613.6ZM669.681 116C666.721 116 665.241 114.52 665.241 111.56V40.4C665.241 37.44 666.721 35.96 669.681 35.96H713.361C716.321 35.96 717.801 37.44 717.801 40.4C717.801 43.32 716.321 44.78 713.361 44.78H674.061V71.18H699.201C702.161 71.18 703.641 72.64 703.641 75.56C703.641 78.52 702.161 80 699.201 80H674.061V107.18H713.361C716.321 107.18 717.801 108.64 717.801 111.56C717.801 114.52 716.321 116 713.361 116H669.681ZM748.865 115.94C741.945 115.94 736.625 114.5 732.905 111.62C729.225 108.7 727.025 104.18 726.305 98.06C726.185 96.58 726.505 95.46 727.265 94.7C728.065 93.9 729.185 93.5 730.625 93.5C732.065 93.5 733.125 93.86 733.805 94.58C734.525 95.3 734.985 96.38 735.185 97.82C735.665 101.34 736.925 103.78 738.965 105.14C741.045 106.46 744.345 107.12 748.865 107.12H766.145C771.505 107.12 775.165 106.14 777.125 104.18C779.125 102.18 780.125 98.56 780.125 93.32C780.125 88 779.105 84.34 777.065 82.34C775.065 80.3 771.425 79.28 766.145 79.28H750.785C743.385 79.28 737.905 77.5 734.345 73.94C730.825 70.38 729.065 64.92 729.065 57.56C729.065 50.2 730.805 44.76 734.285 41.24C737.805 37.72 743.265 35.96 750.665 35.96H765.785C772.265 35.96 777.245 37.34 780.725 40.1C784.245 42.82 786.365 47.04 787.085 52.76C787.245 54.24 786.925 55.38 786.125 56.18C785.365 56.94 784.245 57.32 782.765 57.32C781.365 57.32 780.305 56.96 779.585 56.24C778.865 55.48 778.425 54.4 778.265 53C777.785 49.92 776.585 47.78 774.665 46.58C772.785 45.38 769.825 44.78 765.785 44.78H750.665C745.705 44.78 742.325 45.7 740.525 47.54C738.765 49.34 737.885 52.68 737.885 57.56C737.885 62.44 738.785 65.82 740.585 67.7C742.425 69.54 745.825 70.46 750.785 70.46H766.145C773.905 70.46 779.645 72.32 783.365 76.04C787.085 79.76 788.945 85.52 788.945 93.32C788.945 101.08 787.085 106.8 783.365 110.48C779.645 114.12 773.905 115.94 766.145 115.94H748.865Z" fill="white"/>
<path d="M149.274 114V41.9H164.724V114H149.274ZM155.454 86.19V72.903H203.555V86.19H155.454ZM156.587 55.805V41.9H207.881V55.805H156.587ZM252.26 115.03C245.943 115.03 240.141 114.103 234.853 112.249C229.635 110.326 225.068 107.683 221.154 104.318C217.24 100.953 214.219 97.005 212.09 92.473C210.03 87.941 209 83.0313 209 77.744C209 72.4567 210.065 67.547 212.193 63.015C214.322 58.483 217.309 54.5347 221.154 51.17C225.068 47.8053 229.635 45.196 234.853 43.342C240.141 41.4193 245.943 40.458 252.26 40.458C258.578 40.458 264.346 41.4193 269.564 43.342C274.852 45.196 279.418 47.8397 283.263 51.273C287.177 54.6377 290.199 58.586 292.327 63.118C294.456 67.65 295.52 72.5253 295.52 77.744C295.52 82.9627 294.456 87.838 292.327 92.37C290.199 96.902 287.177 100.885 283.263 104.318C279.418 107.683 274.852 110.326 269.564 112.249C264.346 114.103 258.578 115.03 252.26 115.03ZM252.26 100.404C256.243 100.404 259.917 99.8547 263.281 98.756C266.715 97.5887 269.633 95.975 272.036 93.915C274.508 91.855 276.431 89.4517 277.804 86.705C279.178 83.9583 279.864 80.9713 279.864 77.744C279.864 74.5167 279.178 71.5297 277.804 68.783C276.431 66.0363 274.508 63.6673 272.036 61.676C269.633 59.616 266.715 58.0023 263.281 56.835C259.917 55.6677 256.243 55.084 252.26 55.084C248.278 55.084 244.604 55.6677 241.239 56.835C237.875 58.0023 234.922 59.616 232.381 61.676C229.909 63.6673 228.021 66.0363 226.716 68.783C225.412 71.5297 224.759 74.5167 224.759 77.744C224.759 80.9713 225.412 83.9583 226.716 86.705C228.021 89.4517 229.909 91.855 232.381 93.915C234.922 95.975 237.875 97.5887 241.239 98.756C244.604 99.8547 248.278 100.404 252.26 100.404ZM336.681 114.618C329.471 114.618 323.154 113.176 317.729 110.292C312.373 107.339 308.184 103.322 305.163 98.241C302.142 93.091 300.631 87.2887 300.631 80.834V41.797H316.184V80.319C316.184 84.233 317.077 87.735 318.862 90.825C320.647 93.8463 323.085 96.2497 326.175 98.035C329.265 99.7517 332.733 100.61 336.578 100.61C340.629 100.61 344.234 99.7517 347.393 98.035C350.552 96.2497 353.024 93.8463 354.809 90.825C356.663 87.735 357.59 84.233 357.59 80.319V41.797H372.628V80.834C372.628 87.2887 371.117 93.091 368.096 98.241C365.075 103.322 360.852 107.339 355.427 110.292C350.071 113.176 343.822 114.618 336.681 114.618ZM382.722 114V41.9H422.686C427.836 41.9 432.299 42.8613 436.076 44.784C439.921 46.7067 442.908 49.3847 445.037 52.818C447.166 56.2513 448.23 60.234 448.23 64.766C448.23 69.2293 447.063 73.2463 444.728 76.817C442.393 80.3877 439.269 83.2373 435.355 85.366C431.441 87.4947 427.046 88.559 422.171 88.559H397.657V114H382.722ZM434.016 114L410.738 81.452L426.909 78.877L452.247 114.103L434.016 114ZM397.657 75.993H420.626C422.755 75.993 424.712 75.5467 426.497 74.654C428.351 73.6927 429.793 72.4223 430.823 70.843C431.922 69.195 432.471 67.341 432.471 65.281C432.471 63.2897 431.922 61.5387 430.823 60.028C429.724 58.5173 428.214 57.35 426.291 56.526C424.437 55.702 422.377 55.29 420.111 55.29H397.657V75.993Z" fill="white"/>
<rect x="1.5" y="1.5" width="823" height="143" rx="6.5" stroke="white" stroke-width="3"/>
</svg>
